<mxfile host="Electron" modified="2023-11-30T08:03:29.548Z" agent="Mozilla/5.0 (Windows NT 10.0; Win64; x64) AppleWebKit/537.36 (KHTML, like Gecko) draw.io/22.1.2 Chrome/114.0.5735.289 Electron/25.9.4 Safari/537.36" etag="D-ctcXZoq6AzrOJsh_fG" version="22.1.2" type="device">
  <diagram name="페이지-1" id="pE4cqzJZ1XsMd7-XdrDE">
    <mxGraphModel dx="1054" dy="662" grid="1" gridSize="10" guides="1" tooltips="1" connect="1" arrows="1" fold="1" page="1" pageScale="1" pageWidth="827" pageHeight="1169" math="0" shadow="0">
      <root>
        <mxCell id="0" />
        <mxCell id="1" parent="0" />
        <mxCell id="KthDiFychYCuL5yXd9ih-1" style="edgeStyle=orthogonalEdgeStyle;rounded=0;orthogonalLoop=1;jettySize=auto;html=1;exitX=1;exitY=0.5;exitDx=0;exitDy=0;entryX=0;entryY=0.5;entryDx=0;entryDy=0;endArrow=ERone;endFill=0;startArrow=ERone;startFill=0;" parent="1" source="KthDiFychYCuL5yXd9ih-2" target="KthDiFychYCuL5yXd9ih-5" edge="1">
          <mxGeometry relative="1" as="geometry" />
        </mxCell>
        <mxCell id="KthDiFychYCuL5yXd9ih-2" value="Shop" style="html=1;whiteSpace=wrap;" parent="1" vertex="1">
          <mxGeometry x="130" y="330" width="110" height="50" as="geometry" />
        </mxCell>
        <mxCell id="KthDiFychYCuL5yXd9ih-3" style="edgeStyle=orthogonalEdgeStyle;rounded=0;orthogonalLoop=1;jettySize=auto;html=1;exitX=0.5;exitY=1;exitDx=0;exitDy=0;entryX=0.5;entryY=0;entryDx=0;entryDy=0;endArrow=ERmany;endFill=0;" parent="1" source="KthDiFychYCuL5yXd9ih-5" target="KthDiFychYCuL5yXd9ih-7" edge="1">
          <mxGeometry relative="1" as="geometry" />
        </mxCell>
        <mxCell id="KthDiFychYCuL5yXd9ih-4" value="" style="edgeStyle=orthogonalEdgeStyle;rounded=0;orthogonalLoop=1;jettySize=auto;html=1;endArrow=ERmany;endFill=0;" parent="1" source="KthDiFychYCuL5yXd9ih-5" target="KthDiFychYCuL5yXd9ih-8" edge="1">
          <mxGeometry relative="1" as="geometry" />
        </mxCell>
        <mxCell id="KthDiFychYCuL5yXd9ih-5" value="Inventory" style="html=1;whiteSpace=wrap;" parent="1" vertex="1">
          <mxGeometry x="350" y="330" width="110" height="50" as="geometry" />
        </mxCell>
        <mxCell id="KthDiFychYCuL5yXd9ih-7" value="Product" style="html=1;whiteSpace=wrap;" parent="1" vertex="1">
          <mxGeometry x="350" y="490" width="110" height="50" as="geometry" />
        </mxCell>
        <mxCell id="KthDiFychYCuL5yXd9ih-8" value="Stock" style="html=1;whiteSpace=wrap;" parent="1" vertex="1">
          <mxGeometry x="540" y="330" width="110" height="50" as="geometry" />
        </mxCell>
        <mxCell id="KthDiFychYCuL5yXd9ih-12" style="edgeStyle=orthogonalEdgeStyle;rounded=0;orthogonalLoop=1;jettySize=auto;html=1;exitX=1;exitY=0.5;exitDx=0;exitDy=0;entryX=0;entryY=0.5;entryDx=0;entryDy=0;endArrow=none;endFill=0;" parent="1" source="KthDiFychYCuL5yXd9ih-13" target="KthDiFychYCuL5yXd9ih-16" edge="1">
          <mxGeometry relative="1" as="geometry" />
        </mxCell>
        <mxCell id="KthDiFychYCuL5yXd9ih-13" value="Time" style="html=1;whiteSpace=wrap;" parent="1" vertex="1">
          <mxGeometry x="130" y="170" width="110" height="50" as="geometry" />
        </mxCell>
        <mxCell id="KthDiFychYCuL5yXd9ih-14" style="edgeStyle=orthogonalEdgeStyle;rounded=0;orthogonalLoop=1;jettySize=auto;html=1;exitX=0.5;exitY=1;exitDx=0;exitDy=0;entryX=0.5;entryY=0;entryDx=0;entryDy=0;endArrow=none;endFill=0;" parent="1" source="KthDiFychYCuL5yXd9ih-16" target="KthDiFychYCuL5yXd9ih-5" edge="1">
          <mxGeometry relative="1" as="geometry" />
        </mxCell>
        <mxCell id="KthDiFychYCuL5yXd9ih-15" style="edgeStyle=orthogonalEdgeStyle;rounded=0;orthogonalLoop=1;jettySize=auto;html=1;exitX=1;exitY=0.5;exitDx=0;exitDy=0;entryX=0.5;entryY=0;entryDx=0;entryDy=0;endArrow=none;endFill=0;" parent="1" source="KthDiFychYCuL5yXd9ih-16" target="KthDiFychYCuL5yXd9ih-8" edge="1">
          <mxGeometry relative="1" as="geometry" />
        </mxCell>
        <mxCell id="KthDiFychYCuL5yXd9ih-16" value="DecayingChecker" style="html=1;whiteSpace=wrap;" parent="1" vertex="1">
          <mxGeometry x="342" y="170" width="126" height="50" as="geometry" />
        </mxCell>
      </root>
    </mxGraphModel>
  </diagram>
</mxfile>
